<svg width="93" height="93" viewBox="0 0 93 93" fill="none" xmlns="http://www.w3.org/2000/svg">
<rect x="2.5" y="2.5" width="88" height="88" rx="17.5" fill="white" stroke="#4C51CA" stroke-width="5"/>
<mask id="path-2-outside-1_121_109" maskUnits="userSpaceOnUse" x="20" y="14" width="54" height="65" fill="black">
<rect fill="white" x="20" y="14" width="54" height="65"/>
<path d="M26.7212 27.4375V20.6364H67.2468V27.4375H50.9087V73H43.0337V27.4375H26.7212Z"/>
</mask>
<path d="M26.7212 27.4375V20.6364H67.2468V27.4375H50.9087V73H43.0337V27.4375H26.7212Z" fill="white"/>
<path d="M26.7212 27.4375H20.7212V33.4375H26.7212V27.4375ZM26.7212 20.6364V14.6364H20.7212V20.6364H26.7212ZM67.2468 20.6364H73.2468V14.6364H67.2468V20.6364ZM67.2468 27.4375V33.4375H73.2468V27.4375H67.2468ZM50.9087 27.4375V21.4375H44.9087V27.4375H50.9087ZM50.9087 73V79H56.9087V73H50.9087ZM43.0337 73H37.0337V79H43.0337V73ZM43.0337 27.4375H49.0337V21.4375H43.0337V27.4375ZM32.7212 27.4375V20.6364H20.7212V27.4375H32.7212ZM26.7212 26.6364H67.2468V14.6364H26.7212V26.6364ZM61.2468 20.6364V27.4375H73.2468V20.6364H61.2468ZM67.2468 21.4375H50.9087V33.4375H67.2468V21.4375ZM44.9087 27.4375V73H56.9087V27.4375H44.9087ZM50.9087 67H43.0337V79H50.9087V67ZM49.0337 73V27.4375H37.0337V73H49.0337ZM43.0337 21.4375H26.7212V33.4375H43.0337V21.4375Z" fill="#4C51CA" mask="url(#path-2-outside-1_121_109)"/>
</svg>
